:SAMPLES-PER-SECOND 30
:FRAME-RANGE 1-744
:FULLY-SPECIFIED
:DEGREES
24
root  -61.7513 40.0034 -90.0368 169.553 51.5638 177.376
RightUpLeg  13.6976 -1.73291 1.89329
RightLeg  -0.314368 7.43244 -2.83437
RightFoot  -15.787 0.226658 8.58864
RightToes  5.82063e-011 0 -3.6325e-017
Spine  9.45898 0.512281 6.1799
Spine1  -0.520878 1.9435 -4.78911
HEad  1.41452 -22.4281 -11.7601
LeftShoulder1  3.2037 -4.19498 -35.5696
LeftArm  5.51573 -0.450567 -35.03
LeftForeArm  11.8753 -1.39223 -17.3003
LeftHand  -1.36671 -5.4836 14.8333
RightShoulder  7.1738 5.47559 67.9129
RightArm  25.8294 5.15422 -2.97855
RightForeArm  10.3896 9.7884 13.32
RightHand  0.37561 19.7586 1.22503
LeftUpLeg  12.016 6.65798 3.30269
LeftLeg  5.77836 4.79575 0.851118
LeftFoot  -9.63611 0.0605683 -0.180696
LeftToes  1.25507e-010 -3.78807e-010 5.71421e-011
25
root  -61.5489 39.9521 -90.2927 169.47 51.54 177.328
RightUpLeg  14.1466 -1.99004 1.63348
RightLeg  0.0050852 7.66361 -2.80585
RightFoot  -16.6138 0.305453 9.06913
RightToes  5.82063e-011 0 -3.6325e-017
Spine  9.8192 0.615698 6.37182
Spine1  -0.629263 2.08952 -4.68824
HEad  1.43364 -21.3131 -12.3033
LeftShoulder1  3.1489 -4.0401 -35.6933
LeftArm  5.0715 1.40123 -33.5744
LeftForeArm  10.583 -1.77172 -17.2161
LeftHand  -1.33873 -5.41123 14.6322
RightShoulder  6.97464 5.171 68.2707
RightArm  25.1273 4.53481 -3.45438
RightForeArm  12.5476 8.03949 14.1451
RightHand  0.46207 19.6843 1.62734
LeftUpLeg  10.4187 7.49198 3.74612
LeftLeg  9.09993 4.75236 0.782452
LeftFoot  -9.62475 0.0621784 -0.291736
LeftToes  1.25507e-010 -3.78807e-010 5.71421e-011
26
root  -61.3351 39.9071 -90.5876 169.314 51.4212 177.151
RightUpLeg  14.5881 -2.31757 1.22123
RightLeg  0.407685 8.00754 -2.77439
RightFoot  -17.5247 0.364901 8.9443
RightToes  5.82063e-011 0 -3.6325e-017
Spine  10.1271 0.739985 6.50582
Spine1  -0.621212 2.25634 -4.58964
HEad  1.44732 -19.8747 -12.7901
LeftShoulder1  3.11865 -3.96646 -35.699
LeftArm  5.5278 3.6035 -32.2711
LeftForeArm  9.13554 -2.41546 -17.1451
LeftHand  -1.33122 -5.36284 14.6153
RightShoulder  6.76383 4.86479 68.5669
RightArm  24.6695 3.8402 -4.06412
RightForeArm  13.6704 6.30096 14.9372
RightHand  0.727801 19.5697 2.86247
LeftUpLeg  8.77212 8.21217 3.96526
LeftLeg  11.6295 4.2731 0.929026
LeftFoot  -9.4125 0.0638208 -0.432912
LeftToes  1.25507e-010 -3.78807e-010 5.71421e-011
27
root  -61.0947 39.8572 -90.9257 169.154 51.1911 176.904
RightUpLeg  15.2292 -2.52866 0.822918
RightLeg  0.432564 8.08026 -2.90107
RightFoot  -18.1236 0.440112 9.48671
RightToes  5.82063e-011 0 -3.6325e-017
Spine  10.5194 0.864299 6.63065
Spine1  -0.787689 2.4138 -4.60044
HEad  1.83546 -17.5604 -13.2598
LeftShoulder1  3.07608 -3.8656 -35.692
LeftArm  6.30245 5.9621 -30.9455
LeftForeArm  7.26493 -3.05178 -17.1122
LeftHand  -1.20551 -5.37019 13.2677
RightShoulder  6.42351 4.3988 68.8888
RightArm  23.0258 3.50268 -4.64526
RightForeArm  15.5472 3.5083 15.8654
RightHand  0.828345 19.4095 3.35158
LeftUpLeg  7.02596 8.26321 3.92152
LeftLeg  13.1891 3.82879 1.09129
LeftFoot  -9.1591 0.0554119 -0.020123
LeftToes  1.25507e-010 -3.78807e-010 5.71421e-011
28
root  -60.8332 39.8232 -91.3072 168.873 51.1036 176.304
RightUpLeg  15.7995 -2.80347 0.126105
RightLeg  0.256255 8.39151 -3.08363
RightFoot  -18.0355 0.445421 9.6916
RightToes  5.82063e-011 0 -3.6325e-017
Spine  10.993 1.14624 6.63619
Spine1  -1.24024 2.71443 -4.73321
HEad  2.56735 -14.4436 -13.6988
LeftShoulder1  3.01753 -3.71477 -35.7501
LeftArm  7.84023 8.40574 -29.5878
LeftForeArm  6.91629 -3.62858 -17.0885
LeftHand  -1.34211 -5.41032 14.6692
RightShoulder  6.05891 3.93436 69.0133
RightArm  22.3319 2.89013 -5.14583
RightForeArm  15.9868 1.11799 16.5806
RightHand  0.964043 19.2759 4.00589
LeftUpLeg  5.36432 7.8026 3.60001
LeftLeg  13.2051 3.44954 1.0193
LeftFoot  -8.98126 0.0569507 -0.145176
LeftToes  1.25507e-010 -3.78807e-010 5.71421e-011
29
root  -60.5544 39.801 -91.7488 168.61 51.0677 175.715
RightUpLeg  16.4515 -3.43907 -0.868292
RightLeg  -0.0626949 9.11078 -3.00066
RightFoot  -17.1373 0.339127 8.98297
RightToes  5.82063e-011 0 -3.6325e-017
Spine  11.3913 1.49692 7.04119
Spine1  -1.49927 3.19746 -5.27557
HEad  3.15741 -11.4565 -13.5754
LeftShoulder1  2.9553 -3.56791 -35.7372
LeftArm  8.63409 10.612 -28.3571
LeftForeArm  5.83989 -3.67403 -17.1958
LeftHand  -1.31148 -5.19797 14.6197
RightShoulder  5.64482 3.42023 69.067
RightArm  21.786 2.10855 -5.63098
RightForeArm  15.7849 -0.827659 17.0292
RightHand  1.02788 18.9062 4.37939
LeftUpLeg  3.86944 7.14592 3.33794
LeftLeg  11.9912 3.22792 0.842383
LeftFoot  -8.18377 0.0603644 -0.405876
LeftToes  1.25507e-010 -3.78807e-010 5.71421e-011
30
root  -60.2606 39.7653 -92.2325 168.407 50.9273 175.083
RightUpLeg  17.0336 -3.67908 -1.57444
RightLeg  -0.278014 9.37522 -3.2845
RightFoot  -16.6419 0.29798 8.86448
RightToes  5.82063e-011 0 -3.6325e-017
Spine  11.8136 1.87625 7.399
Spine1  -1.72042 3.69847 -5.82527
HEad  3.61365 -8.93503 -13.4768
LeftShoulder1  2.88851 -3.38524 -35.8707
LeftArm  7.33321 12.8271 -27.1523
LeftForeArm  6.23513 -3.21312 -17.2053
LeftHand  -1.25753 -5.11445 14.143
RightShoulder  5.23354 2.92731 68.9749
RightArm  22.1463 1.5429 -5.92745
RightForeArm  15.0454 -2.49957 17.4548
RightHand  1.09176 18.7505 4.71625
LeftUpLeg  2.12679 6.13643 2.98951
LeftLeg  10.279 3.33776 0.815599
LeftFoot  -6.12037 0.0581746 -0.468559
LeftToes  1.25507e-010 -3.78807e-010 5.71421e-011
